<svg width="14" height="14" viewBox="0 0 14 14" fill="none" xmlns="http://www.w3.org/2000/svg">
<g clip-path="url(#clip0_25081_172)">
<path d="M6.23332 5.09998H7.36665V3.39998H9.06665V2.26665H7.36665V0.56665H6.23332V2.26665H4.53332V3.39998H6.23332V5.09998ZM3.96665 10.2C3.34332 10.2 2.83898 10.71 2.83898 11.3333C2.83898 11.9567 3.34332 12.4667 3.96665 12.4667C4.58998 12.4667 5.09998 11.9567 5.09998 11.3333C5.09998 10.71 4.58998 10.2 3.96665 10.2ZM9.63332 10.2C9.00998 10.2 8.50565 10.71 8.50565 11.3333C8.50565 11.9567 9.00998 12.4667 9.63332 12.4667C10.2567 12.4667 10.7667 11.9567 10.7667 11.3333C10.7667 10.71 10.2567 10.2 9.63332 10.2ZM4.06298 8.35832L4.07998 8.29032L4.58998 7.36665H8.81165C9.23665 7.36665 9.61065 7.13432 9.80332 6.78298L11.9907 2.81065L11.0047 2.26665H10.999L10.3757 3.39998L8.81165 6.23332H4.83365L4.75998 6.08032L3.49065 3.39998L2.95232 2.26665L2.41965 1.13332H0.56665V2.26665H1.69998L3.73998 6.56765L2.97498 7.95598C2.88432 8.11465 2.83332 8.30165 2.83332 8.49998C2.83332 9.12332 3.34332 9.63332 3.96665 9.63332H10.7667V8.49998H4.20465C4.13098 8.49998 4.06298 8.43765 4.06298 8.35832Z" fill="white"/>
</g>
<defs>
<clipPath id="clip0_25081_172">
<rect width="13.6" height="13.6" fill="white"/>
</clipPath>
</defs>
</svg>
